<svg width="16" height="16" viewBox="0 0 16 16" fill="none" xmlns="http://www.w3.org/2000/svg">
<path d="M8.69235 9.39309C8.09948 9.10036 7.4326 8.9361 6.72741 8.9361C4.26724 8.9361 2.27288 10.9365 2.27288 13.4042C2.27288 13.7566 1.98786 14.0425 1.63644 14.0425C1.28502 14.0425 1 13.7566 1 13.4042C1 10.2315 3.56438 7.65939 6.72739 7.65939C7.81077 7.65939 8.82381 7.96107 9.68776 8.48546C10.2163 8.16378 10.8365 7.97872 11.5 7.97872C13.4331 7.97872 15 9.55027 15 11.4894C15 13.4282 13.4332 15 11.5 15C9.56703 15 7.99997 13.4282 7.99997 11.4894C7.99997 10.7036 8.25743 9.97806 8.69232 9.39318L8.69235 9.39309ZM6.72741 7.02128C4.79446 7.02128 3.2274 5.44947 3.2274 3.51064C3.2274 1.57162 4.79446 0 6.72741 0C8.66037 0 10.2274 1.57155 10.2274 3.51064C10.2274 5.44947 8.66037 7.02128 6.72741 7.02128ZM6.72741 5.74457C7.95753 5.74457 8.95451 4.74449 8.95451 3.51071C8.95451 2.27692 7.95746 1.27658 6.72741 1.27658C5.49736 1.27658 4.50005 2.27692 4.50005 3.51071C4.50005 4.74449 5.49736 5.74457 6.72741 5.74457ZM11.5 13.7229C12.7301 13.7229 13.7274 12.7229 13.7274 11.4891C13.7274 10.2552 12.7301 9.25494 11.5 9.25494C10.27 9.25494 9.27291 10.2553 9.27291 11.4891C9.27291 12.7229 10.27 13.7229 11.5 13.7229ZM12.1364 10.7709C12.1364 10.8148 12.1721 10.8507 12.216 10.8507H12.4548C12.8062 10.8507 13.091 11.1365 13.091 11.489C13.091 11.8415 12.8062 12.1274 12.4548 12.1274H12.216C12.1721 12.1274 12.1364 12.1629 12.1364 12.2072V12.4464C12.1364 12.7989 11.8517 13.0848 11.5 13.0848C11.1486 13.0848 10.8638 12.7989 10.8638 12.4464V12.2072C10.8638 12.1629 10.8281 12.1274 10.7843 12.1274H10.5455C10.1941 12.1274 9.90931 11.8415 9.90931 11.489C9.90931 11.1365 10.1941 10.8507 10.5455 10.8507H10.7843C10.8281 10.8507 10.8638 10.8148 10.8638 10.7709V10.5316C10.8638 10.1791 11.1486 9.89323 11.5 9.89323C11.8517 9.89323 12.1364 10.1791 12.1364 10.5316V10.7709Z" fill="#7F56DA"/>
</svg>
