<svg width="16" height="12" viewBox="0 0 16 12" fill="none" xmlns="http://www.w3.org/2000/svg">
<path d="M12.6 0H2.99996C2.20465 0.000950238 1.44209 0.317372 0.879727 0.879735C0.317365 1.4421 0.000932472 2.20467 0 2.99999V9.0003C0.000950189 9.79563 0.317369 10.5582 0.879727 11.1206C1.44208 11.6829 2.20465 11.9994 2.99996 12.0003H12.6C13.3953 11.9993 14.1578 11.6829 14.7202 11.1206C15.2826 10.5582 15.599 9.79563 15.5999 9.0003V2.99999C15.599 2.20467 15.2826 1.4421 14.7202 0.879735C14.1578 0.317368 13.3953 0.00093248 12.6 0ZM14.4 9.00006H14.3998C14.3998 9.47737 14.2102 9.93521 13.8726 10.2729C13.5351 10.6104 13.0773 10.8001 12.5999 10.8001H2.99993C2.52262 10.8001 2.06478 10.6104 1.7271 10.2729C1.38962 9.93525 1.19989 9.47741 1.19989 9.00006V2.99975C1.19989 2.52244 1.38962 2.06459 1.7271 1.72691C2.06474 1.38943 2.52258 1.1997 2.99993 1.1997H12.5999C13.0772 1.1997 13.5351 1.38942 13.8726 1.72691C14.2102 2.06456 14.3998 2.5224 14.3998 2.99975L14.4 9.00006Z" fill="#7F56DA"/>
<path d="M12.2818 3.09097L8.7538 5.29596H8.75365C8.46716 5.47365 8.13679 5.56772 7.79964 5.56772C7.46264 5.56772 7.13211 5.47365 6.84564 5.29596L3.31765 3.09097C3.13552 2.97742 2.90651 2.96966 2.71697 3.07055C2.52756 3.17159 2.40625 3.36591 2.39897 3.58065C2.39168 3.79524 2.49953 3.99731 2.68166 4.11103L6.20965 6.31601C6.68728 6.61169 7.23793 6.76847 7.79968 6.76847C8.36156 6.76847 8.91208 6.61168 9.38971 6.31601L12.9177 4.11103H12.9179C13.1 3.99732 13.2077 3.79524 13.2004 3.58065C13.1931 3.3659 13.072 3.17158 12.8824 3.07055C12.693 2.96966 12.464 2.97742 12.2819 3.09097H12.2818Z" fill="#7F56DA"/>
</svg>
